<?xml version="1.0" standalone="no"?>
<!DOCTYPE svg PUBLIC "-//W3C//DTD SVG 20010904//EN"
 "http://www.w3.org/TR/2001/REC-SVG-20010904/DTD/svg10.dtd">
<svg version="1.0" xmlns="http://www.w3.org/2000/svg"
 width="512.000000pt" height="512.000000pt" viewBox="0 0 512.000000 512.000000"
 preserveAspectRatio="xMidYMid meet">

<g transform="translate(0.000000,512.000000) scale(0.100000,-0.100000)"
fill="#000000" stroke="none">
<path d="M1130 2545 l0 -1265 275 0 275 0 2 740 3 740 370 -610 370 -610 130
0 131 0 362 609 c200 334 369 617 377 627 12 17 14 -81 15 -738 l0 -758 275 0
275 0 0 723 c0 398 -3 968 -7 1266 l-6 541 -240 -2 -240 -3 -451 -761 c-248
-418 -458 -771 -467 -784 -15 -23 -26 -6 -489 763 l-473 787 -244 0 -243 0 0
-1265z"/>
</g>
</svg>
